<svg xmlns="http://www.w3.org/2000/svg">
    <defs>
        <style>
        .img { display: none }
        .img:target { display: inline }
        </style>
    </defs>

		<svg viewBox="0 0 10 13" fill="none" xmlns="http://www.w3.org/2000/svg">
			<g id="city" class="img">
				<path d="M10 4.91892C10 7.63556 7.14286 10.8919 5 13C2.5 10.5405 0 7.63556 0 4.91892C0 2.20228 2.23858 0 5 0C7.76142 0 10 2.20228 10 4.91892Z" fill="white"/>
			</g>
		</svg>

		<svg viewBox="0 0 12 12" fill="none" xmlns="http://www.w3.org/2000/svg">
			<g id="phone" class="img">
				<path d="M11.4058 8.51613L10.4048 7.51668C10.1901 7.30149 9.9168 7.15417 9.619 7.09304C9.3212 7.03192 9.012 7.05969 8.72986 7.17291L7.76658 7.55557C7.68257 7.58945 7.59044 7.59782 7.5017 7.57963C7.41295 7.56143 7.33154 7.51749 7.26764 7.45329L4.54541 4.73107C4.48192 4.66704 4.43854 4.58583 4.42065 4.49745C4.40275 4.40906 4.41111 4.31737 4.44469 4.23368L4.83008 3.27041C4.9428 2.98798 4.97006 2.67866 4.90845 2.38088C4.84685 2.0831 4.69911 1.80998 4.48358 1.59546L3.48414 0.594462C3.31729 0.427572 3.11249 0.303592 2.88727 0.233132C2.66205 0.162672 2.42311 0.147829 2.1909 0.189876C1.95869 0.231922 1.74012 0.329605 1.55391 0.474564C1.36769 0.619523 1.21937 0.807443 1.12164 1.02224L0.492026 2.40863C0.189083 3.08071 0.0973009 3.82892 0.228821 4.55429C0.360341 5.27966 0.708966 5.94802 1.22858 6.47096L5.5293 10.7717C6.05214 11.2915 6.72048 11.6402 7.44588 11.7718C8.17128 11.9034 8.91954 11.8116 9.59164 11.5086L10.9772 10.8786C11.192 10.7809 11.38 10.6326 11.5249 10.4464C11.6699 10.2601 11.7676 10.0416 11.8096 9.80936C11.8517 9.57715 11.8368 9.33821 11.7664 9.11299C11.6959 8.88777 11.5719 8.68297 11.405 8.51613H11.4058Z" fill="white"/>
			</g>
		</svg>


		<svg viewBox="0 0 9 9" fill="none" xmlns="http://www.w3.org/2000/svg">
			<g id="arrow-bottom" class="img">
				<path d="M8.05699 4.69359L4.79102 7.95957L1.52504 4.69359" stroke="#FFDD29" stroke-linecap="round" stroke-linejoin="round"/>
			</g>
		</svg>
		<svg viewBox="0 0 13 13" fill="none" xmlns="http://www.w3.org/2000/svg">
			<g id="arrow-bottom2" class="img">
				<path d="M11.2036 6.20361L6.71289 10.6943L2.22217 6.20361" stroke="#FFDD29" stroke-width="2" stroke-linecap="round" stroke-linejoin="round"/>
			</g>
		</svg>

		<svg viewBox="0 0 41 41" fill="none" xmlns="http://www.w3.org/2000/svg">
			<g id="shape" class="img">
				<path d="M35.1338 14.2025L5.64732 26.5783" stroke="white" stroke-width="7" stroke-linecap="round"/>
				<path d="M26.5786 35.1335L14.2029 5.64707" stroke="white" stroke-width="7" stroke-linecap="round"/>
			</g>
		</svg>



		<svg viewBox="0 0 15 15" fill="none" xmlns="http://www.w3.org/2000/svg">
			<g id="search" class="img">
				<circle cx="5.4902" cy="5.65194" r="4.73344" stroke="white" stroke-width="1.51351"/>
				<path d="M14.0002 13.6127L9.3335 9.22058" stroke="white" stroke-width="1.51351" stroke-linecap="round"/>
			</g>
		</svg>

		<svg viewBox="0 0 35 49" fill="none" xmlns="http://www.w3.org/2000/svg">
			<g id="arrows" class="img">
				<path d="M30.5312 31.2656L17.2656 44.5311L4.00006 31.2656" stroke="#249EFA" stroke-width="5" stroke-linecap="round" stroke-linejoin="round"/>
				<path d="M30.5312 17.2656L17.2656 30.5311L4.00006 17.2656" stroke="#249EFA" stroke-width="5" stroke-linecap="round" stroke-linejoin="round"/>
			</g>
		</svg>
		<svg viewBox="0 0 35 49" fill="none" xmlns="http://www.w3.org/2000/svg">
			<g id="arrows-hover" class="img">
				<path d="M30.5312 31.2656L17.2656 44.5311L4.00006 31.2656" stroke="#FFDD29" stroke-width="5" stroke-linecap="round" stroke-linejoin="round"/>
				<path d="M30.5312 17.2656L17.2656 30.5311L4.00006 17.2656" stroke="#FFDD29" stroke-width="5" stroke-linecap="round" stroke-linejoin="round"/>
			</g>
		</svg>

		<svg viewBox="0 0 80 80" fill="none" xmlns="http://www.w3.org/2000/svg">
			<g id="probnoe" class="img">
				<path d="M28.3665 46.6667H21.6665V53.3333H58.3332V46.6667H51.6665V38.3333L48.5065 23.7752L51.6665 17.4536V0H44.9998V6.66667H34.9998V0H28.3332V17.4536L31.4899 23.7663L28.4129 37.6115L28.3665 46.6667ZM34.9998 46.6667V38.7004L37.6732 26.6667H42.3265L44.9998 38.7004V46.6667H34.9998ZM44.9998 15.8797L42.9401 20H37.0612L34.9998 15.8797V13.3333H44.9998V15.8797Z" fill="#249EFA"/>
				<path d="M56.6667 26.6667H73.3333V60H6.66667V26.6667H23.3333V20H0V66.6667H36.6667V73.3333H26.6667V80H53.3333V73.3333H43.3333V66.6667H80V20H56.6667V26.6667Z" fill="#249EFA"/>
			</g>
		</svg>

		<svg viewBox="0 0 80 80" fill="none" xmlns="http://www.w3.org/2000/svg">
			<g id="individual" class="img">
				<path d="M31.188 29.0348L1.0415 18.3952L6.68522 63.5417V80H73.3519V63.5417L78.9948 18.3952L48.8483 29.0348L43.3519 22.1631V13.3333H50.0186V6.66667H43.3519V0H36.6852V6.66667H30.0186V13.3333H36.6852V22.1631L31.188 29.0348ZM49.8468 40.957L47.1279 60H32.91L30.1895 40.957L40.0186 28.6702L49.8468 40.957ZM26.778 34.5483L23.1818 39.0446L26.175 60H12.9613L8.99479 28.2715L26.778 34.5483ZM66.6852 73.3333H13.3519V66.6667H66.6852V73.3333ZM71.0415 28.2715L67.075 60H53.8613L56.8561 39.043L53.2599 34.5467L71.0415 28.2715Z" fill="#249EFA"/>
			</g>
		</svg>

		<svg viewBox="0 0 74 74" fill="none" xmlns="http://www.w3.org/2000/svg">
			<g id="group" class="img">
				<path d="M58.5067 58.5833V55.5H52.34L47.2566 23.1002C49.4509 20.6461 50.7983 17.419 50.7983 13.875C50.7983 6.22388 44.573 0 36.9233 0C29.273 0 23.0483 6.22388 23.0483 13.875C23.0483 17.4175 24.3943 20.6446 26.5879 23.0987L21.5451 55.0175L21.5421 55.5H15.34V58.5833C15.34 60.2838 13.9572 61.6667 12.2567 61.6667H9.17334V74H64.6733V61.6667H61.59C59.8895 61.6667 58.5067 60.2838 58.5067 58.5833ZM36.9233 6.16667C41.1735 6.16667 44.6317 9.62488 44.6317 13.875C44.6317 18.1251 41.1735 21.5833 36.9233 21.5833C32.6725 21.5833 29.215 18.1251 29.215 13.875C29.215 9.62488 32.6725 6.16667 36.9233 6.16667ZM32.2283 26.9144C33.6962 27.4466 35.2733 27.75 36.9233 27.75C38.5727 27.75 40.1497 27.4466 41.6176 26.9144L46.1342 55.5H27.7117L32.2283 26.9144ZM58.5067 67.8333H15.34V67.3049C17.9634 66.3737 20.0478 64.2908 20.9775 61.6667H52.8685C53.7996 64.2908 55.8825 66.3752 58.5067 67.3049V67.8333Z" fill="#249EFA"/>
				<path d="M68.3172 4.0641C62.9078 -1.34754 54.105 -1.34754 48.6948 4.0641L53.0549 8.42337C54.5115 6.96828 56.4483 6.16658 58.5064 6.16658C60.5645 6.16658 62.5006 6.96828 63.9557 8.42337C66.9622 11.4299 66.9622 16.3199 63.9557 19.3265C62.5006 20.7815 60.5645 21.5832 58.5064 21.5832C56.4483 21.5832 54.5115 20.7815 53.0549 19.3265L48.6948 23.6857C51.3988 26.3919 54.9526 27.7439 58.5064 27.7439C60.0985 27.7439 61.6853 27.4571 63.2006 26.9143L67.7564 55.7423V73.9999H73.9231V55.4999L68.8411 23.1061C73.704 17.6658 73.5407 9.2868 68.3172 4.0641Z" fill="#249EFA"/>
				<path d="M15.4167 27.7446C18.969 27.7446 22.522 26.3927 25.2275 23.6865L20.8682 19.3272C17.8617 22.3315 12.9702 22.3315 9.96663 19.3272C6.96084 16.3206 6.96084 11.4307 9.96663 8.42411C12.9717 5.41982 17.8617 5.41982 20.8682 8.42411L25.2275 4.06484C19.8166 -1.34681 11.0167 -1.34681 5.60585 4.06484C0.383911 9.28753 0.219055 17.6651 5.07967 23.1053L0.0383912 55.0196L0 74.0007H6.16667V55.743L10.7224 26.9151C12.2377 27.4578 13.8253 27.7446 15.4167 27.7446Z" fill="#249EFA"/>
			</g>
		</svg>

		<svg viewBox="0 0 86 86" fill="none" xmlns="http://www.w3.org/2000/svg">
			<g id="medal" class="img">
				<path d="M71.6668 0H14.3335V19.997L32.8293 30.5659C22.0356 34.6812 14.3335 45.1127 14.3335 57.3333C14.3335 73.139 27.1945 86 43.0002 86C58.8058 86 71.6668 73.139 71.6668 57.3333C71.6668 45.1127 63.9648 34.6812 53.171 30.5659L71.6668 19.997V0ZM43.0002 28.1216L35.8335 24.0265V7.16667H50.1668V24.0283L43.0002 28.1216ZM21.5002 7.16667H28.6668V19.9323L21.5002 15.8363V7.16667ZM64.5002 57.3333C64.5002 69.1891 54.856 78.8333 43.0002 78.8333C31.1444 78.8333 21.5002 69.1891 21.5002 57.3333C21.5002 45.7732 30.6772 36.3425 42.1262 35.8779H43.8741C55.3231 36.3425 64.5002 45.7732 64.5002 57.3333ZM64.5002 15.8363L57.3335 19.9323V7.16667H64.5002V15.8363Z" fill="#249EFA"/>
				<path d="M34.0415 51.9584H39.4165V62.7084H34.0415V69.8751H51.9582V62.7084H46.5832V51.9584H51.9582V44.7917H34.0415V51.9584Z" fill="#249EFA"/>
			</g>
		</svg>

		<svg xmlns="http://www.w3.org/2000/svg" viewBox="0 0 20 24" fill="none">
			<g id="video-block-btn" class="img">
				<path d="M3.05271 0.889773C1.72033 0.064965 0 1.02328 0 2.5903V21.4097C0 22.9767 1.72033 23.935 3.05271 23.1102L18.253 13.7005C19.516 12.9186 19.516 11.0814 18.253 10.2995L3.05271 0.889773Z" fill="#27A4FF"/>
			</g>
		</svg>

		<svg viewBox="0 0 35 35" fill="none" xmlns="http://www.w3.org/2000/svg">
			<g id="slider-arrow" class="img">
				<path d="M17.5001 31.9999L3.00012 17.5L17.5001 3.00006" stroke="#FFDD29" stroke-width="3" stroke-linecap="round" stroke-linejoin="round"/>
			</g>
		</svg>

		<svg viewBox="0 0 93 79" fill="none" xmlns="http://www.w3.org/2000/svg">
			<g id="camera" class="img">
				<path d="M81.2137 78.4307L92.8115 24.5879L55.7946 16.6144L57.2443 9.88405L63.9746 11.3338L65.4244 4.60343L45.2333 0.254244L43.7836 6.98459L50.514 8.43432L49.0642 15.1647L12.0473 7.19116L0.449498 61.0339L81.2137 78.4307ZM26.4394 38.4617C28.8377 27.3277 39.8457 20.2216 50.9797 22.6199C62.1137 25.0182 69.2198 36.0261 66.8215 47.1601C64.4232 58.2941 53.4153 65.4002 42.2813 63.002C31.1473 60.6037 24.0412 49.5957 26.4394 38.4617ZM75.933 70.2506L60.0273 66.8245C66.7021 63.0963 71.8195 56.6522 73.5519 48.6098C75.2842 40.5674 73.2737 32.5879 68.7257 26.4424L84.6314 29.8685L75.933 70.2506ZM8.62957 55.7533L17.3279 15.3712L33.2336 18.7974C26.5589 22.5255 21.4414 28.9696 19.7091 37.012C17.9768 45.0544 19.9873 53.0339 24.5353 59.1794L8.62957 55.7533Z" fill="#FFDD29"/>
				<path d="M52.8949 30.0747L46.1646 28.625L42.5402 45.4509L56.0009 48.3503L57.4506 41.62L50.7203 40.1702L52.8949 30.0747Z" fill="#FFDD29"/>
			</g>
		</svg>

		<svg viewBox="0 0 52 52" fill="none" xmlns="http://www.w3.org/2000/svg">
			<g id="video-arrow" class="img">
				<path d="M33.6397 25.6719L25.918 0.130826L51.4591 25.6719L25.918 51.2129L33.6397 25.6719Z" fill="#249EFA"/>
			</g>
		</svg>

		<svg viewBox="0 0 22 14" fill="none" xmlns="http://www.w3.org/2000/svg">
			<g id="vk" class="img">
				<path d="M21.8834 12.0604C21.8567 12.003 21.8319 11.9554 21.8088 11.9172C21.4271 11.2298 20.6977 10.386 19.621 9.38561L19.5983 9.3627L19.5869 9.35147L19.5754 9.33996H19.5638C19.0751 8.87412 18.7657 8.56091 18.6361 8.40055C18.399 8.09508 18.3459 7.78587 18.4755 7.47258C18.567 7.23587 18.9109 6.73598 19.5064 5.97222C19.8196 5.56745 20.0677 5.24304 20.2509 4.99863C21.572 3.24219 22.1448 2.1198 21.9691 1.63102L21.9009 1.5168C21.855 1.44803 21.7367 1.38513 21.546 1.32775C21.3548 1.2705 21.1105 1.26104 20.8127 1.29919L17.5138 1.32198C17.4604 1.30304 17.3841 1.30481 17.2847 1.32775C17.1854 1.3507 17.1357 1.36222 17.1357 1.36222L17.0783 1.3909L17.0327 1.42537C16.9945 1.44815 16.9525 1.48823 16.9067 1.54553C16.8611 1.60262 16.8229 1.66962 16.7924 1.74596C16.4333 2.66996 16.0249 3.52905 15.5666 4.32318C15.2841 4.79671 15.0246 5.2071 14.7876 5.55457C14.5509 5.90193 14.3524 6.15785 14.1921 6.3219C14.0317 6.48611 13.8868 6.61767 13.7568 6.71704C13.6269 6.81646 13.5277 6.85847 13.4591 6.8431C13.3903 6.82773 13.3255 6.81249 13.2642 6.79724C13.1573 6.72848 13.0714 6.63496 13.0066 6.51661C12.9415 6.39825 12.8977 6.24929 12.8748 6.06983C12.852 5.89026 12.8385 5.7358 12.8347 5.60593C12.8311 5.47622 12.8328 5.29275 12.8405 5.05605C12.8484 4.81922 12.852 4.65898 12.852 4.57497C12.852 4.28474 12.8577 3.96976 12.869 3.62995C12.8806 3.29013 12.8899 3.02089 12.8977 2.82254C12.9055 2.62398 12.9091 2.41392 12.9091 2.19246C12.9091 1.971 12.8957 1.79732 12.869 1.67126C12.8427 1.54536 12.8023 1.42316 12.7491 1.30469C12.6955 1.18633 12.6171 1.09478 12.5142 1.02979C12.4112 0.964872 12.283 0.913358 12.1305 0.875084C11.7258 0.78349 11.2103 0.733942 10.584 0.726239C9.16376 0.710994 8.25115 0.802707 7.84643 1.00126C7.68607 1.08515 7.54095 1.19977 7.41121 1.34477C7.27372 1.51283 7.25454 1.60454 7.3538 1.61963C7.81204 1.68827 8.13645 1.85248 8.32738 2.1121L8.39619 2.24967C8.44971 2.34892 8.50315 2.52465 8.55663 2.7766C8.61003 3.02855 8.64449 3.30726 8.65965 3.61258C8.69777 4.17012 8.69777 4.64739 8.65965 5.04441C8.62142 5.4416 8.58531 5.7508 8.55085 5.97226C8.51639 6.19372 8.46487 6.37318 8.39619 6.51059C8.32738 6.64804 8.2816 6.73205 8.25866 6.76254C8.23575 6.79303 8.21665 6.81225 8.20149 6.81979C8.10223 6.85782 7.999 6.8772 7.89216 6.8772C7.78516 6.8772 7.65542 6.82368 7.50272 6.71672C7.35006 6.60976 7.19163 6.46285 7.02742 6.27573C6.86321 6.08857 6.67802 5.82703 6.47176 5.49106C6.26567 5.1551 6.05183 4.75804 5.83037 4.29987L5.64714 3.9676C5.5326 3.75384 5.37613 3.44259 5.17758 3.03413C4.9789 2.62551 4.8033 2.23025 4.65064 1.84843C4.58962 1.68807 4.49795 1.56599 4.37578 1.48198L4.31845 1.44751C4.28034 1.41702 4.21916 1.38464 4.13523 1.35014C4.05117 1.31568 3.96347 1.29096 3.87176 1.27576L0.733229 1.29855C0.412512 1.29855 0.194902 1.3712 0.0803198 1.51632L0.0344629 1.58496C0.0115545 1.6232 0 1.68426 0 1.76831C0 1.85232 0.0229084 1.95543 0.0687653 2.07751C0.526933 3.15433 1.02518 4.19283 1.56351 5.19317C2.10184 6.19352 2.56963 6.99933 2.96662 7.60987C3.36368 8.22085 3.76841 8.79749 4.1808 9.33951C4.59319 9.88173 4.86617 10.2292 4.99973 10.3819C5.13345 10.5348 5.23848 10.6491 5.31483 10.7255L5.60124 11.0004C5.78451 11.1837 6.05363 11.4032 6.40873 11.659C6.76391 11.9149 7.15713 12.1668 7.58858 12.4152C8.0201 12.6632 8.52212 12.8656 9.09491 13.0221C9.66762 13.1787 10.225 13.2416 10.7673 13.2113H12.0846C12.3517 13.1882 12.5541 13.1042 12.6917 12.9592L12.7373 12.9018C12.7679 12.8562 12.7966 12.7854 12.8231 12.6901C12.8499 12.5947 12.8632 12.4895 12.8632 12.3751C12.8554 12.0468 12.8804 11.751 12.9375 11.4875C12.9946 11.2242 13.0597 11.0256 13.1324 10.8919C13.2052 10.7583 13.2873 10.6456 13.3786 10.5542C13.4702 10.4626 13.5354 10.4071 13.5737 10.388C13.6117 10.3688 13.6421 10.3557 13.665 10.3479C13.8483 10.2869 14.0639 10.346 14.3124 10.5256C14.5606 10.7051 14.7934 10.9267 15.0112 11.19C15.2288 11.4536 15.4903 11.7493 15.7957 12.0776C16.1013 12.406 16.3685 12.6502 16.5975 12.8108L16.8265 12.9482C16.9795 13.0399 17.178 13.1239 17.4224 13.2003C17.6664 13.2766 17.8801 13.2957 18.0637 13.2575L20.9959 13.2118C21.2859 13.2118 21.5116 13.1638 21.6717 13.0685C21.8321 12.973 21.9274 12.8679 21.9581 12.7535C21.9888 12.639 21.9904 12.5091 21.9639 12.3639C21.9368 12.219 21.91 12.1177 21.8834 12.0604Z" fill="#FFDD29"/>
			</g>
		</svg>
		<svg viewBox="0 0 22 14" fill="none" xmlns="http://www.w3.org/2000/svg">
			<g id="vk-white" class="img">
				<path d="M21.8834 12.0604C21.8567 12.003 21.8319 11.9554 21.8088 11.9172C21.4271 11.2298 20.6977 10.386 19.621 9.38561L19.5983 9.3627L19.5869 9.35147L19.5754 9.33996H19.5638C19.0751 8.87412 18.7657 8.56091 18.6361 8.40055C18.399 8.09508 18.3459 7.78587 18.4755 7.47258C18.567 7.23587 18.9109 6.73598 19.5064 5.97222C19.8196 5.56745 20.0677 5.24304 20.2509 4.99863C21.572 3.24219 22.1448 2.1198 21.9691 1.63102L21.9009 1.5168C21.855 1.44803 21.7367 1.38513 21.546 1.32775C21.3548 1.2705 21.1105 1.26104 20.8127 1.29919L17.5138 1.32198C17.4604 1.30304 17.3841 1.30481 17.2847 1.32775C17.1854 1.3507 17.1357 1.36222 17.1357 1.36222L17.0783 1.3909L17.0327 1.42537C16.9945 1.44815 16.9525 1.48823 16.9067 1.54553C16.8611 1.60262 16.8229 1.66962 16.7924 1.74596C16.4333 2.66996 16.0249 3.52905 15.5666 4.32318C15.2841 4.79671 15.0246 5.2071 14.7876 5.55457C14.5509 5.90193 14.3524 6.15785 14.1921 6.3219C14.0317 6.48611 13.8868 6.61767 13.7568 6.71704C13.6269 6.81646 13.5277 6.85847 13.4591 6.8431C13.3903 6.82773 13.3255 6.81249 13.2642 6.79724C13.1573 6.72848 13.0714 6.63496 13.0066 6.51661C12.9415 6.39825 12.8977 6.24929 12.8748 6.06983C12.852 5.89026 12.8385 5.7358 12.8347 5.60593C12.8311 5.47622 12.8328 5.29275 12.8405 5.05605C12.8484 4.81922 12.852 4.65898 12.852 4.57497C12.852 4.28474 12.8577 3.96976 12.869 3.62995C12.8806 3.29013 12.8899 3.02089 12.8977 2.82254C12.9055 2.62398 12.9091 2.41392 12.9091 2.19246C12.9091 1.971 12.8957 1.79732 12.869 1.67126C12.8427 1.54536 12.8023 1.42316 12.7491 1.30469C12.6955 1.18633 12.6171 1.09478 12.5142 1.02979C12.4112 0.964872 12.283 0.913358 12.1305 0.875084C11.7258 0.78349 11.2103 0.733942 10.584 0.726239C9.16376 0.710994 8.25115 0.802707 7.84643 1.00126C7.68607 1.08515 7.54095 1.19977 7.41121 1.34477C7.27372 1.51283 7.25454 1.60454 7.3538 1.61963C7.81204 1.68827 8.13645 1.85248 8.32738 2.1121L8.39619 2.24967C8.44971 2.34892 8.50315 2.52465 8.55663 2.7766C8.61003 3.02855 8.64449 3.30726 8.65965 3.61258C8.69777 4.17012 8.69777 4.64739 8.65965 5.04441C8.62142 5.4416 8.58531 5.7508 8.55085 5.97226C8.51639 6.19372 8.46487 6.37318 8.39619 6.51059C8.32738 6.64804 8.2816 6.73205 8.25866 6.76254C8.23575 6.79303 8.21665 6.81225 8.20149 6.81979C8.10223 6.85782 7.999 6.8772 7.89216 6.8772C7.78516 6.8772 7.65542 6.82368 7.50272 6.71672C7.35006 6.60976 7.19163 6.46285 7.02742 6.27573C6.86321 6.08857 6.67802 5.82703 6.47176 5.49106C6.26567 5.1551 6.05183 4.75804 5.83037 4.29987L5.64714 3.9676C5.5326 3.75384 5.37613 3.44259 5.17758 3.03413C4.9789 2.62551 4.8033 2.23025 4.65064 1.84843C4.58962 1.68807 4.49795 1.56599 4.37578 1.48198L4.31845 1.44751C4.28034 1.41702 4.21916 1.38464 4.13523 1.35014C4.05117 1.31568 3.96347 1.29096 3.87176 1.27576L0.733229 1.29855C0.412512 1.29855 0.194902 1.3712 0.0803198 1.51632L0.0344629 1.58496C0.0115545 1.6232 0 1.68426 0 1.76831C0 1.85232 0.0229084 1.95543 0.0687653 2.07751C0.526933 3.15433 1.02518 4.19283 1.56351 5.19317C2.10184 6.19352 2.56963 6.99933 2.96662 7.60987C3.36368 8.22085 3.76841 8.79749 4.1808 9.33951C4.59319 9.88173 4.86617 10.2292 4.99973 10.3819C5.13345 10.5348 5.23848 10.6491 5.31483 10.7255L5.60124 11.0004C5.78451 11.1837 6.05363 11.4032 6.40873 11.659C6.76391 11.9149 7.15713 12.1668 7.58858 12.4152C8.0201 12.6632 8.52212 12.8656 9.09491 13.0221C9.66762 13.1787 10.225 13.2416 10.7673 13.2113H12.0846C12.3517 13.1882 12.5541 13.1042 12.6917 12.9592L12.7373 12.9018C12.7679 12.8562 12.7966 12.7854 12.8231 12.6901C12.8499 12.5947 12.8632 12.4895 12.8632 12.3751C12.8554 12.0468 12.8804 11.751 12.9375 11.4875C12.9946 11.2242 13.0597 11.0256 13.1324 10.8919C13.2052 10.7583 13.2873 10.6456 13.3786 10.5542C13.4702 10.4626 13.5354 10.4071 13.5737 10.388C13.6117 10.3688 13.6421 10.3557 13.665 10.3479C13.8483 10.2869 14.0639 10.346 14.3124 10.5256C14.5606 10.7051 14.7934 10.9267 15.0112 11.19C15.2288 11.4536 15.4903 11.7493 15.7957 12.0776C16.1013 12.406 16.3685 12.6502 16.5975 12.8108L16.8265 12.9482C16.9795 13.0399 17.178 13.1239 17.4224 13.2003C17.6664 13.2766 17.8801 13.2957 18.0637 13.2575L20.9959 13.2118C21.2859 13.2118 21.5116 13.1638 21.6717 13.0685C21.8321 12.973 21.9274 12.8679 21.9581 12.7535C21.9888 12.639 21.9904 12.5091 21.9639 12.3639C21.9368 12.219 21.91 12.1177 21.8834 12.0604Z" fill="#fff"/>
			</g>
		</svg>

		<svg viewBox="0 0 15 15" fill="none" xmlns="http://www.w3.org/2000/svg">
			<g id="insta" class="img">
				<path d="M12.8027 0H2.19727C0.985794 0 0 0.985794 0 2.19727V12.8027C0 14.0142 0.985794 15 2.19727 15H12.8027C14.0142 15 15 14.0142 15 12.8027V2.19727C15 0.985794 14.0142 0 12.8027 0ZM7.5293 11.4258C5.3484 11.4258 3.57422 9.6516 3.57422 7.4707C3.57422 5.2898 5.3484 3.51562 7.5293 3.51562C9.7102 3.51562 11.4844 5.2898 11.4844 7.4707C11.4844 9.6516 9.7102 11.4258 7.5293 11.4258ZM11.9238 4.39453C11.1969 4.39453 10.6055 3.8031 10.6055 3.07617C10.6055 2.34924 11.1969 1.75781 11.9238 1.75781C12.6508 1.75781 13.2422 2.34924 13.2422 3.07617C13.2422 3.8031 12.6508 4.39453 11.9238 4.39453Z" fill="#FFDD29"/>
				<path d="M11.9238 2.63672C11.6813 2.63672 11.4844 2.83367 11.4844 3.07617C11.4844 3.31867 11.6813 3.51562 11.9238 3.51562C12.1663 3.51562 12.3633 3.31867 12.3633 3.07617C12.3633 2.83367 12.1663 2.63672 11.9238 2.63672Z" fill="#FFDD29"/>
				<path d="M7.5293 4.39453C5.83328 4.39453 4.45312 5.77469 4.45312 7.4707C4.45312 9.16672 5.83328 10.5469 7.5293 10.5469C9.22531 10.5469 10.6055 9.16672 10.6055 7.4707C10.6055 5.77469 9.22531 4.39453 7.5293 4.39453Z" fill="#FFDD29"/>
			</g>
		</svg>
		<svg viewBox="0 0 15 15" fill="none" xmlns="http://www.w3.org/2000/svg">
			<g id="insta-white" class="img">
				<path d="M12.8027 0H2.19727C0.985794 0 0 0.985794 0 2.19727V12.8027C0 14.0142 0.985794 15 2.19727 15H12.8027C14.0142 15 15 14.0142 15 12.8027V2.19727C15 0.985794 14.0142 0 12.8027 0ZM7.5293 11.4258C5.3484 11.4258 3.57422 9.6516 3.57422 7.4707C3.57422 5.2898 5.3484 3.51562 7.5293 3.51562C9.7102 3.51562 11.4844 5.2898 11.4844 7.4707C11.4844 9.6516 9.7102 11.4258 7.5293 11.4258ZM11.9238 4.39453C11.1969 4.39453 10.6055 3.8031 10.6055 3.07617C10.6055 2.34924 11.1969 1.75781 11.9238 1.75781C12.6508 1.75781 13.2422 2.34924 13.2422 3.07617C13.2422 3.8031 12.6508 4.39453 11.9238 4.39453Z" fill="#fff"/>
				<path d="M11.9238 2.63672C11.6813 2.63672 11.4844 2.83367 11.4844 3.07617C11.4844 3.31867 11.6813 3.51562 11.9238 3.51562C12.1663 3.51562 12.3633 3.31867 12.3633 3.07617C12.3633 2.83367 12.1663 2.63672 11.9238 2.63672Z" fill="#fff"/>
				<path d="M7.5293 4.39453C5.83328 4.39453 4.45312 5.77469 4.45312 7.4707C4.45312 9.16672 5.83328 10.5469 7.5293 10.5469C9.22531 10.5469 10.6055 9.16672 10.6055 7.4707C10.6055 5.77469 9.22531 4.39453 7.5293 4.39453Z" fill="#fff"/>
			</g>
		</svg>

		<svg viewBox="0 0 14 15" fill="none" xmlns="http://www.w3.org/2000/svg">
			<g id="facebook" class="img">
				<path d="M13.2272 1.69673e-08H0.772119C0.345642 0.000274676 -8.54334e-05 0.37088 1.58362e-08 0.828003V14.1727C0.000256365 14.6297 0.346155 15.0001 0.772803 15H7.47852V9.19922H5.66016V6.92871H7.47852V5.25778C7.47852 3.32007 8.5826 2.26538 10.1959 2.26538C10.9686 2.26538 11.6326 2.32709 11.8262 2.35464V4.37988H10.7137C9.83597 4.37988 9.66602 4.82675 9.66602 5.48264V6.92871H11.7646L11.4912 9.19922H9.66602V15H13.2272C13.6539 15.0001 13.9999 14.6296 14 14.1724C14 14.1723 14 14.1722 14 14.172V0.827271C13.9998 0.370331 13.6538 -9.15358e-05 13.2272 1.69673e-08Z" fill="#FFDD29"/>
			</g>
		</svg>
		<svg viewBox="0 0 14 15" fill="none" xmlns="http://www.w3.org/2000/svg">
			<g id="facebook-white" class="img">
				<path d="M13.2272 1.69673e-08H0.772119C0.345642 0.000274676 -8.54334e-05 0.37088 1.58362e-08 0.828003V14.1727C0.000256365 14.6297 0.346155 15.0001 0.772803 15H7.47852V9.19922H5.66016V6.92871H7.47852V5.25778C7.47852 3.32007 8.5826 2.26538 10.1959 2.26538C10.9686 2.26538 11.6326 2.32709 11.8262 2.35464V4.37988H10.7137C9.83597 4.37988 9.66602 4.82675 9.66602 5.48264V6.92871H11.7646L11.4912 9.19922H9.66602V15H13.2272C13.6539 15.0001 13.9999 14.6296 14 14.1724C14 14.1723 14 14.1722 14 14.172V0.827271C13.9998 0.370331 13.6538 -9.15358e-05 13.2272 1.69673e-08Z" fill="#fff"/>
			</g>
		</svg>


		<svg viewBox="0 0 22 22" fill="none" xmlns="http://www.w3.org/2000/svg">
			<g id="crown" class="img">
				<path d="M18.8981 15.8125L18.5454 17.3422C18.4732 17.6543 18.1954 17.875 17.875 17.875H4.12505C3.80468 17.875 3.52693 17.6543 3.45474 17.3422L3.10205 15.8125H18.8981Z" fill="#FFDD29"/>
				<path d="M20.6077 8.40435L19.2155 14.4372H2.78425L1.39206 8.40435C1.33087 8.13828 1.43262 7.86053 1.65193 7.6976C1.87193 7.53466 2.16687 7.51747 2.40337 7.65291L6.65831 10.0846L10.4272 4.43128C10.5502 4.24703 10.7537 4.13291 10.9744 4.12466C11.1972 4.11503 11.4069 4.21541 11.5423 4.39003L15.9622 10.0729L19.5558 7.67766C19.7902 7.52228 20.0962 7.52366 20.3279 7.68385C20.5602 7.84403 20.6702 8.13003 20.6077 8.40435Z" fill="#FFDD29"/>
			</g>
		</svg>

		<svg viewBox="0 0 172 309" fill="none" xmlns="http://www.w3.org/2000/svg">
			<g id="peshka" class="img">
				<path d="M86.2702 308.788C115.231 308.788 155.601 306.595 169.643 302.209C174.47 300.893 171.398 283.787 164.816 280.278C171.398 261.856 171.837 250.452 150.336 237.293C143.754 233.346 136.294 225.012 133.222 217.555C129.273 208.344 144.192 202.204 136.733 197.817C131.467 194.747 122.252 200.888 113.915 160.096C110.405 143.867 108.649 122.375 119.619 119.305C133.661 114.918 144.631 108.778 135.855 102.198C129.273 96.9349 117.864 99.128 109.966 92.9873C98.1179 83.7763 115.67 84.2149 128.395 64.9157C135.855 53.5116 136.294 35.0896 129.273 22.3696C121.375 7.89518 104.7 0 86.2702 0H85.8314C67.8404 0 51.1658 7.89518 42.8285 22.3696C35.8076 35.0896 36.2465 53.5116 43.7062 64.9157C56.4315 84.2149 73.9837 83.7763 62.136 92.9873C54.2375 99.128 42.8285 96.9349 36.2464 102.198C27.9092 108.778 38.4405 115.357 52.4823 119.305C63.0136 122.375 61.2583 143.867 58.1867 160.096C49.8494 200.888 40.6345 194.747 35.3689 197.817C27.9092 201.765 42.8285 207.906 38.8793 217.555C35.8077 225.012 28.348 233.346 21.7659 237.293C0.264509 250.452 0.264495 261.856 7.28537 280.278C0.264495 284.225 -2.36836 300.893 2.45849 302.209C16.939 306.595 57.3091 308.788 86.2702 308.788Z" fill="#FAB544"/>
				<path d="M86.27 308.789C115.231 309.666 155.601 306.595 169.643 302.209C174.47 300.893 171.398 283.787 164.816 280.278C171.398 261.856 171.837 250.452 150.335 237.294C143.753 233.346 136.294 225.012 133.222 217.556C129.273 208.345 144.192 202.204 136.733 197.818C131.467 194.747 122.252 200.888 113.915 160.096C110.404 143.868 108.649 122.375 119.619 119.305C133.661 114.919 144.631 108.778 135.855 102.199C129.273 96.9353 117.864 99.1284 109.965 92.9877C98.1177 83.7767 115.67 84.2153 128.395 64.9161C135.855 53.5119 136.294 35.0899 129.273 22.37C125.762 15.7907 117.425 7.45691 109.527 4.8252C136.294 53.512 73.1058 100.006 39.7567 56.5823C40.1955 57.8981 41.5119 61.8457 43.2671 64.4774C45.4612 67.5478 47.2164 70.6181 49.8492 72.8112C55.1149 77.636 60.8193 82.0222 67.4014 85.0925C81.8819 92.1105 98.1177 92.9877 113.037 98.6897C114.792 99.1284 116.986 100.006 117.425 101.76C118.742 105.708 114.792 107.901 109.527 109.217C73.5447 117.989 41.5119 114.48 32.7358 107.462C33.6135 113.164 46.3388 117.55 52.0432 119.305C66.9626 123.691 100.751 146.938 108.649 182.027C109.088 184.221 108.649 186.414 107.771 188.607C106.894 190.8 106.016 192.554 104.7 193.87C97.6789 201.765 85.8312 203.081 75.2999 203.958C63.4522 204.836 51.1656 205.713 39.3179 203.52C38.0015 204.397 39.3179 206.152 40.6343 207.029C59.9417 219.31 83.6371 223.258 104.261 233.346C110.404 236.416 116.109 239.925 119.18 246.066C123.13 253.961 120.497 264.049 114.353 270.19C106.455 278.085 94.6073 280.278 83.1984 280.717C62.1358 281.594 41.5119 279.84 20.4493 276.769C5.52995 274.576 13.8672 282.033 15.1837 283.349C33.6135 300.455 -46.6878 304.841 86.27 308.789Z" fill="#A66715"/>
			</g>
		</svg>

		<svg xmlns="http://www.w3.org/2000/svg" viewBox="0 0 17 12" fill="none">
			<g id="crown-blue" class="img">	
				<path fill-rule="evenodd" clip-rule="evenodd" d="M15.8984 2.36934C16.1338 2.25479 16.4146 2.29058 16.6135 2.46044C16.8126 2.6303 16.8921 2.90198 16.816 3.15235L14.3156 11.3772C14.2314 11.6543 13.9758 11.8438 13.6861 11.8438H3.15834C2.86866 11.8438 2.61307 11.6543 2.52881 11.3771L0.0284651 3.15231C-0.047631 2.90195 0.0318538 2.63027 0.230895 2.46041C0.429935 2.29055 0.710698 2.25479 0.946027 2.36931L4.29567 4H4.65263L7.92516 0.226874C8.05014 0.0827748 8.23148 0 8.42223 0C8.61298 0 8.79436 0.0827748 8.91931 0.226874L12.2978 4.12222L15.8984 2.36934ZM12.9167 10.5278H13.1984L13.2302 10.4233L12.9167 10.5278ZM8.53408 1.7912L8.04557 2.09652L8.42223 1.66224L8.53408 1.7912Z" fill="#27A4FF"/>
			</g>
		</svg>

		<svg viewBox="0 0 19 14" fill="none" xmlns="http://www.w3.org/2000/svg">
			<g id="crown2" class="img">	
				<path d="M16.8547 3.27943L16.8984 3.36934L16.8547 3.27943L13.3231 4.99871L9.99486 1.16136C9.85091 0.995352 9.64196 0.9 9.42223 0.9C9.20249 0.9 8.99359 0.995357 8.84961 1.16135L8.92516 1.22687L8.84961 1.16135L5.52141 4.99867L1.9898 3.2794L1.98979 3.27939C1.71871 3.14747 1.39528 3.18866 1.16598 3.38434C0.936689 3.58002 0.845127 3.89298 0.932787 4.18139L0.932788 4.1814L3.43314 12.4062C3.5302 12.7255 3.82464 12.9438 4.15834 12.9438H14.6861C15.0198 12.9438 15.3143 12.7255 15.4113 12.4063C15.4113 12.4063 15.4113 12.4063 15.4113 12.4063L17.9116 4.18143C17.9993 3.89302 17.9078 3.58004 17.6784 3.38437C17.4492 3.18869 17.1257 3.14747 16.8547 3.27943ZM2.88866 5.40309L5.381 6.61644L5.381 6.61644C5.68964 6.76667 6.06053 6.69079 6.28538 6.43157L6.28539 6.43156L9.42223 2.81486L12.5591 6.43156C12.7839 6.69084 13.1549 6.76663 13.4635 6.61644L13.4197 6.52653L13.4635 6.61644L15.9558 5.40309L14.1243 11.4278H4.72013L2.88866 5.40309Z" fill="#FFE600" stroke="#FFE600" stroke-width="0.2"/>
			</g>
		</svg>

		<svg viewBox="0 0 440 282" fill="none" xmlns="http://www.w3.org/2000/svg">
			<g id="reviews-bg" class="img">	
				<path d="M234.428 269.927C371.685 229.412 428.667 78.3155 440 7.83155L440 0L-52.7452 -2.15386e-05C-56.2324 8.1796 -62.6838 42.1859 -60.5914 112.774C-57.976 201.01 62.8564 320.571 234.428 269.927Z" fill="#FFDD29"/>
			</g>
		</svg>

		<svg viewBox="0 0 460 579" fill="none" preserveAspectRatio="none" xmlns="http://www.w3.org/2000/svg">
			<g id="footer-bg" class="img">
				<path d="M440.307 237.577C374.219 78.9506 127.749 13.098 12.7749 0H0V569.46C13.3426 573.49 68.814 580.946 183.958 578.528C327.888 575.505 522.918 435.861 440.307 237.577Z" fill="#FFDD29"/>
			</g>
		</svg>


		<svg viewBox="0 0 165 165" fill="none" xmlns="http://www.w3.org/2000/svg">
			<g id="computer" class="img">
				<path d="M58.5063 96.25H44.6875V110H120.313V96.25H106.563V79.0625L100.045 49.0364L106.563 35.9981V0H92.8125V13.75H72.1875V0H58.4375V35.9981L64.9483 49.0179L58.602 77.5737L58.5063 96.25ZM72.1875 96.25V79.8195L77.7013 55H87.2987L92.8125 79.8195V96.25H72.1875ZM92.8125 32.7519L88.5643 41.25H76.4391L72.1875 32.7519V27.5H92.8125V32.7519Z" fill="#249EFA"/>
				<path d="M116.875 55H151.25V123.75H13.75V55H48.125V41.25H0V137.5H75.625V151.25H55V165H110V151.25H89.375V137.5H165V41.25H116.875V55Z" fill="#249EFA"/>
			</g>
		</svg>

		<svg viewBox="0 0 18 12" fill="none" xmlns="http://www.w3.org/2000/svg">
			<g id="butter" class="img">
				<path fill-rule="evenodd" clip-rule="evenodd" d="M0.948488 0H17.0515C17.5735 0 18.0005 0.427 18.0005 0.949V1.051C18.0005 1.573 17.5735 2 17.0515 2H0.948488C0.426488 2 0.000488281 1.573 0.000488281 1.051V0.949C0.000488281 0.427 0.426488 0 0.948488 0ZM17.0515 5H0.948488C0.426488 5 0.000488281 5.427 0.000488281 5.949V6.051C0.000488281 6.573 0.426488 7 0.948488 7H17.0515C17.5735 7 18.0005 6.573 18.0005 6.051V5.949C18.0005 5.427 17.5735 5 17.0515 5ZM17.0515 10H0.948488C0.426488 10 0.000488281 10.427 0.000488281 10.949V11.051C0.000488281 11.573 0.426488 12 0.948488 12H17.0515C17.5735 12 18.0005 11.573 18.0005 11.051V10.949C18.0005 10.427 17.5735 10 17.0515 10Z" fill="white"/>
			</g>
		</svg>
		<svg viewBox="0 0 12 12" fill="none" xmlns="http://www.w3.org/2000/svg">
			<g id="close" class="img">
				<path fill-rule="evenodd" clip-rule="evenodd" d="M6 6.96212L1.15224 11.8099C0.88577 12.0764 0.515693 12.0615 0.227082 11.7729C-0.0615295 11.4843 -0.0763222 11.1143 0.190096 10.8477L5.03785 5.99998L0.190141 1.15226C-0.0763322 0.885791 -0.0614842 0.515714 0.227127 0.227102C0.515738 -0.0615088 0.88576 -0.0763016 1.15229 0.190116L6 5.03783L10.8477 0.190137C11.1142 -0.0763359 11.4842 -0.0615436 11.7729 0.227123C12.0615 0.515789 12.0763 0.885863 11.8098 1.15228L6.96215 5.99998L11.8099 10.8477C12.0764 11.1142 12.0616 11.4842 11.7729 11.7729C11.4842 12.0615 11.1142 12.0763 10.8477 11.8099L6 6.96212Z" fill="white"/>
			</g>
		</svg>

		<svg viewBox="0 0 113 201" fill="none" xmlns="http://www.w3.org/2000/svg">
			<g id="footer-mobile" class="img">
				<path d="M4.83759 82.475C21.0724 27.4077 81.6183 4.54697 109.862 0H113V197.688C109.722 199.087 96.0957 201.676 67.8103 200.836C32.4535 199.787 -15.4559 151.309 4.83759 82.475Z" fill="#FFDD29"/>
			</g>
		</svg>

		<svg viewBox="0 0 627 1329" fill="none" xmlns="http://www.w3.org/2000/svg">
			<g id="block-bg" class="img">
				<path d="M395.5 77.9427C223.5 -94.0573 34.1667 58.2761 -39 155.943V1328.44C40.8333 1219.28 255.2 967.743 474 834.943C747.5 668.943 610.5 292.943 395.5 77.9427Z" fill="#FFDD29"/>
			</g>
		</svg>

		<svg viewBox="0 0 622 1456" fill="none" xmlns="http://www.w3.org/2000/svg">
			<g id="block-bg2" class="img">
				<path d="M243.251 1267.66C364.874 1478.32 587.183 1380.18 683.134 1304.78L986.6 172.231C881.232 257.015 609.068 444.495 363.352 516.141C56.2077 605.697 91.2235 1004.34 243.251 1267.66Z" fill="#58B7FF"/>
			</g>
		</svg>

		<svg  viewBox="0 0 987 1456" fill="none" xmlns="http://www.w3.org/2000/svg">
			<g id="block2-bg" class="img">
				<path d="M243.251 1267.66C364.874 1478.32 587.183 1380.18 683.134 1304.78L986.6 172.231C881.232 257.015 609.068 444.495 363.352 516.141C56.2077 605.697 91.2235 1004.34 243.251 1267.66Z" fill="#FFDD29"/>
			</g>
		</svg>

		<svg viewBox="0 0 227 294" fill="none" xmlns="http://www.w3.org/2000/svg">
			<g id="price-big" class="img">
				<circle cx="113.5" cy="180.5" r="113.5" fill="white"/>
				<path d="M94.8252 250.637C111.196 250.637 143.109 249.394 151.605 246.701C154.506 245.873 152.641 235.723 148.704 233.651C152.641 222.673 152.848 215.838 140 208.173C136.27 205.895 130.675 200.924 128.81 196.367C126.531 190.774 135.441 187.253 131.09 184.767C127.981 183.11 114.512 178.967 112.025 126.561C111.61 114.961 111.61 109.369 112.854 109.369C123.837 109.576 126.116 110.197 126.116 103.155C126.116 98.8047 120.314 99.6333 120.521 98.1833C120.936 95.4905 123.422 90.3121 119.692 88.8621C113.683 86.7907 115.34 91.5549 114.304 83.2694C113.89 80.5766 116.169 82.2337 116.377 79.3338C116.584 76.641 112.232 79.9552 112.854 70.8411C115.548 34.592 130.261 30.2421 127.36 26.9279C125.702 25.0637 122.179 28.585 121.143 27.9636C119.899 27.135 121.972 24.4423 120.314 24.4423C116.584 24.2351 116.169 26.7208 112.232 27.1351C110.782 21.9566 106.015 13.8782 97.9336 12.2211C104.772 7.45696 100.835 0 95.0324 0C89.2301 0 85.2928 7.66409 92.1312 12.2211C84.0494 14.0854 79.2833 21.9566 77.8327 27.1351C73.8954 26.5136 73.481 24.2351 69.7509 24.4423C68.0931 24.4423 70.1654 27.135 68.922 27.9636C67.8859 28.585 64.3631 25.0637 62.7053 26.9279C60.0113 30.035 74.7243 34.592 77.211 70.8411C77.8327 79.9552 73.481 76.4338 73.6882 79.3338C73.8954 82.0266 75.9677 80.5766 75.7605 83.2694C74.7243 91.5549 76.3821 86.7907 70.3726 88.8621C66.4353 90.1049 69.1292 95.2834 69.5437 98.1833C69.7509 99.6333 63.9486 98.8047 63.9486 103.155C63.9486 110.197 66.2281 109.576 77.211 109.369C78.4544 109.369 78.4544 114.961 78.0399 126.561C75.7605 178.967 62.0836 183.11 58.9752 184.767C54.6235 187.253 63.5342 190.981 61.2547 196.367C59.3897 200.924 53.7946 205.895 50.0645 208.173C37.2166 215.838 37.2165 222.88 41.361 233.651C37.2165 235.93 35.5587 245.873 38.4599 246.701C46.5417 249.394 78.6616 250.637 94.8252 250.637Z" fill="#274395"/>
				<path d="M94.825 250.637C111.196 250.637 143.109 249.394 151.605 246.701C154.506 245.872 152.641 235.723 148.704 233.651C152.641 222.673 152.848 215.837 140 208.173C136.27 205.895 130.675 200.923 128.81 196.366C126.531 190.774 135.441 187.252 131.089 184.767C127.981 183.11 114.511 178.967 112.025 126.561C111.61 114.961 111.61 109.369 112.854 109.369C123.837 109.576 126.116 110.197 126.116 103.154C126.116 98.8045 120.314 99.6331 120.521 98.1831C120.935 95.4903 123.422 90.3119 119.692 88.8619C113.683 86.7905 115.34 91.5547 114.304 83.2692C113.89 80.5764 116.169 82.2335 116.376 79.3336C116.584 76.6408 112.232 79.955 112.854 70.8409C115.548 34.5918 130.261 30.2419 127.359 26.9277C125.702 25.0634 122.179 28.5848 121.143 27.9634C119.899 27.1348 121.972 24.442 120.314 24.442C116.584 24.2349 116.169 26.7206 112.232 27.1348C110.781 21.9564 106.015 13.878 97.9334 12.2209C98.7623 12.428 100.627 9.52811 101.042 8.9067C101.663 7.87101 101.871 6.42105 101.663 5.17822C101.249 3.31398 99.1768 -0.207365 96.8973 0.206911C97.519 1.65688 97.519 3.31398 96.8973 4.76394C96.2756 6.21391 95.0323 7.2496 93.3745 7.66388C92.1311 8.07815 90.6805 7.87101 89.23 7.66388C89.23 7.66388 91.3022 10.9781 91.7167 11.3924C93.1672 12.6352 95.2395 13.2566 96.4828 14.7066C97.7262 15.9494 98.3479 17.8136 98.7623 19.4707C99.1768 20.7136 99.384 21.9564 99.7985 23.1992C100.006 24.0278 100.006 25.2706 99.1768 25.4777C98.7623 25.4777 98.5551 25.2706 98.3479 25.0635C97.1045 24.0278 96.4828 21.9564 94.825 21.9564C93.5817 21.9564 92.7528 23.1992 91.9239 24.0278C89.23 27.1348 84.671 27.342 80.5265 27.342C78.6615 27.342 76.7964 26.9277 75.1386 26.3063C73.2736 25.4777 72.2375 24.442 70.1653 24.6492C68.5075 24.6492 70.5797 27.342 69.3363 28.1705C68.3002 28.7919 64.7774 25.2706 63.1196 27.1348C61.8762 28.5848 64.7774 31.4847 65.6063 32.5204C68.3002 36.0418 69.958 40.3916 73.2736 43.2916C78.0398 47.6415 83.8421 50.5414 89.4372 53.6485C95.0323 56.7555 100.627 60.484 104.15 65.8696C104.979 67.3196 105.808 68.9767 105.601 70.6338C105.186 73.1194 102.492 74.5694 100.006 74.9837C97.519 75.3979 95.0323 75.1908 92.5456 76.0194C90.8878 76.4336 91.7167 77.6765 93.1672 77.8836C93.9961 78.0907 94.8251 78.0907 95.654 78.0907C96.6901 78.0907 97.7262 77.8836 98.5551 78.2979C99.384 78.7121 100.006 79.7478 99.5912 80.5764C99.1768 81.1978 98.3479 81.4049 97.7262 81.4049C94.6178 81.8192 91.5095 82.0264 88.4011 82.2335C85.0855 82.4406 81.7699 81.8192 78.4543 81.8192C78.0398 81.8192 77.4181 82.0263 77.4181 82.4406C77.4181 82.6478 77.8326 82.8549 78.0398 83.062C80.5265 84.0977 83.4277 84.0977 86.1216 84.0977C89.6444 84.0977 93.3745 83.8906 96.8973 83.8906C97.3117 83.8906 97.7262 83.8906 98.1407 84.0977C98.9696 84.512 98.9696 85.5477 98.7623 86.3762C97.7262 89.4833 92.5456 88.4476 90.2661 88.6548C90.0589 88.6548 89.6444 88.6548 89.4372 88.8619C89.23 89.069 89.23 89.6904 89.4372 89.8976C90.8878 91.7618 94.2034 90.3119 95.8612 91.7618C96.4828 92.3832 96.6901 93.2118 96.8973 94.2475C97.1045 95.076 97.1045 95.9046 96.4828 96.526C96.0684 96.9403 95.4467 96.9403 95.0323 96.9403C92.1311 97.1474 89.0227 97.1474 86.1216 97.3545C85.4999 97.3545 84.4638 97.5617 84.4638 98.3902C84.4638 99.0116 85.0855 99.2188 85.4999 99.4259C86.7433 99.8402 88.1938 100.047 89.6444 99.8402C90.4733 99.8402 91.095 99.6331 91.7167 99.8402C92.5456 100.047 92.96 100.876 93.1672 101.704C93.3745 102.533 93.3745 103.362 93.3745 104.19C93.3745 104.812 93.3745 105.64 92.96 106.261C92.5456 107.09 91.7167 107.504 90.8878 107.711C87.1577 109.161 83.2204 109.161 79.2831 109.369C77.4181 109.369 78.247 110.404 78.247 111.647C78.247 113.926 78.4542 116.204 78.247 118.483C78.247 120.968 81.7699 122.211 83.6349 123.661C101.249 138.368 116.791 173.996 106.222 185.181C101.249 190.359 78.4542 189.945 67.2641 188.288C66.0207 188.081 64.3629 188.081 64.1557 189.324C63.9485 190.152 64.5702 190.981 65.1918 191.602C76.382 201.545 94.4106 197.609 107.673 205.066C111.403 207.138 114.511 210.038 117.827 212.937C122.593 217.287 136.892 235.308 109.331 235.723C87.7794 235.93 66.228 237.587 44.8838 236.344C32.2431 235.515 43.8477 248.358 58.1462 249.808C60.8401 250.015 63.3268 250.222 66.0208 250.222C75.3459 250.222 85.0855 250.637 94.825 250.637Z" fill="#252F62"/>
				<path d="M163.416 242.144C163.209 242.351 163.002 242.558 163.002 242.766C163.002 243.18 163.623 243.387 164.038 243.594C165.074 243.801 166.11 243.801 166.939 243.801C167.561 243.801 169.011 243.594 169.426 243.18C169.633 242.766 169.426 242.144 169.426 241.73C169.011 240.487 168.597 239.244 168.39 238.001C168.39 237.794 168.39 237.38 168.182 237.173C167.768 236.551 166.732 236.344 166.11 236.759C165.281 237.173 164.659 238.208 164.659 239.244C164.659 240.073 164.245 241.316 163.416 242.144Z" fill="#F07E31"/>
				<path d="M190.77 237.587C190.563 237.794 190.356 238.001 190.563 238.208C190.563 238.622 190.977 238.83 191.392 238.83C192.221 239.037 193.05 239.037 193.878 239.037C194.5 239.037 195.536 238.83 195.951 238.415C196.158 238.208 195.951 237.587 195.951 237.172C195.536 236.137 195.329 235.101 195.122 234.065C195.122 233.858 195.122 233.444 194.915 233.237C194.5 232.615 193.671 232.615 193.257 232.823C192.635 233.237 192.013 234.065 192.013 234.894C191.806 235.93 191.599 236.758 190.77 237.587Z" fill="#F07E31"/>
				<path d="M174.192 172.753C174.606 173.167 174.813 173.374 175.021 173.789C179.994 180.624 179.165 189.324 179.165 196.159C179.165 198.852 179.165 201.752 180.616 204.238C181.445 205.688 182.481 206.931 183.31 208.173C184.139 209.209 184.76 210.038 185.382 211.073C190.355 218.323 194.085 226.194 195.329 234.48C195.329 234.687 195.329 234.894 195.329 234.894H195.122C193.878 235.101 192.635 235.101 191.184 234.894C190.77 234.894 190.563 234.894 190.148 234.48C190.148 234.273 189.941 234.273 189.941 234.066C188.905 231.373 187.661 228.887 186.004 226.401C184.553 224.123 182.895 221.844 181.445 219.566C176.471 211.902 171.705 204.238 168.597 195.745C166.939 191.602 165.696 187.252 164.038 183.11C162.587 179.588 161.137 175.86 162.173 172.753C164.038 168.403 170.669 169.231 174.192 172.753Z" fill="#0F73A3"/>
				<path d="M172.948 176.274C173.984 177.517 174.399 179.174 174.606 180.624C174.813 182.489 174.192 184.353 173.57 186.217C171.912 191.395 169.633 196.16 167.56 201.131C166.524 203.617 165.488 206.517 165.695 209.416C165.903 210.866 166.317 212.524 166.939 213.973C168.389 218.531 169.218 223.088 169.426 227.645C169.633 230.13 169.633 232.409 169.426 234.894C169.218 236.552 169.426 238.209 169.218 239.659C169.218 239.866 169.218 239.866 169.218 240.073C169.218 240.073 169.011 240.073 169.011 240.28C168.182 240.28 167.56 239.866 166.732 239.659C165.695 239.451 164.659 240.073 163.623 239.659C163.002 236.551 162.38 233.237 161.551 230.13C160.722 225.987 159.686 221.845 158.857 217.702C158.443 215.631 157.821 213.352 157.406 211.281C156.578 207.138 156.992 202.788 156.992 198.645C156.992 194.088 157.406 189.738 157.406 185.388C157.406 181.66 157.199 177.724 159.479 175.032C162.38 171.51 167.768 172.96 171.498 175.86C172.327 175.446 172.741 175.86 172.948 176.274Z" fill="#3EA4D1"/>
				<path d="M170.876 244.837C171.084 245.458 171.291 246.287 170.462 246.287C169.426 246.287 168.39 246.287 167.146 246.08C166.525 246.08 166.11 245.873 165.489 245.873C164.66 245.873 163.831 246.08 163.209 246.287C161.966 246.701 160.93 246.701 159.686 246.908C158.857 247.115 157.821 247.115 156.992 246.701C156.163 246.287 155.335 245.458 155.542 244.423C156.785 244.423 158.236 244.215 159.479 243.801C161.344 243.18 162.38 241.937 163.623 240.694C163.831 240.487 163.831 240.487 164.038 240.28C164.245 240.28 164.66 240.487 164.867 240.694C165.281 241.108 165.696 241.315 166.317 241.523C166.525 241.523 166.939 241.73 167.146 241.73C167.354 241.73 167.561 241.937 167.768 241.937C167.975 241.937 168.182 241.937 168.39 241.73C168.804 241.523 169.011 241.523 169.426 241.315C169.84 241.315 169.633 241.108 170.047 241.523C170.462 242.144 170.669 243.387 170.876 244.008C170.669 244.63 170.876 244.63 170.876 244.837Z" fill="#1F3767"/>
				<path d="M197.608 240.487C197.608 240.694 197.815 240.901 197.815 241.108C197.815 241.315 197.815 241.523 197.815 241.523C197.815 241.73 197.401 241.73 197.194 241.73C196.158 241.73 195.122 241.73 194.293 241.73C193.878 241.73 193.256 241.523 192.842 241.523C192.013 241.523 191.391 241.73 190.77 241.937C189.734 242.144 188.49 242.351 187.454 242.558C186.625 242.558 185.796 242.765 184.967 242.351C184.139 241.937 183.517 241.108 183.517 240.28C184.76 240.28 186.004 240.073 187.04 239.658C188.698 239.037 189.734 238.001 190.77 236.758C190.977 236.551 190.977 236.551 191.184 236.551C191.391 236.551 191.599 236.758 192.013 236.966C193.049 238.001 194.914 237.794 195.95 237.173H196.158L196.365 237.38C196.572 237.794 196.779 238.208 196.987 238.623C197.194 239.244 197.401 239.865 197.608 240.487Z" fill="#1F3767"/>
				<path d="M115.754 134.225C114.718 134.018 113.475 133.604 112.853 132.775C112.646 132.361 112.232 132.154 112.024 131.74C111.61 130.911 111.403 129.875 110.574 129.254L110.367 129.047C110.367 129.047 110.159 129.047 110.159 129.254V129.461C110.367 129.875 110.367 130.29 110.574 130.704C110.574 130.911 110.574 130.911 110.574 131.118C110.574 131.325 110.367 131.325 110.367 131.325C109.952 130.704 109.538 130.29 109.123 129.668C108.916 129.461 108.709 129.254 108.502 129.254L108.294 129.461C108.294 129.461 108.087 129.461 108.087 129.254C107.88 129.047 107.465 129.254 107.465 129.461C107.88 130.29 108.294 131.325 108.916 132.154C108.916 132.154 109.123 132.361 109.123 132.568C109.123 132.775 109.123 132.775 108.916 132.775H108.709C108.502 132.568 108.087 132.361 107.88 131.947C107.673 131.533 107.258 131.118 106.844 131.118H106.637C106.429 131.118 106.637 131.325 106.637 131.533C107.258 132.775 108.502 133.397 109.33 134.432L109.538 134.64C109.538 134.64 109.538 134.847 109.33 134.847H109.123C108.709 134.64 108.294 134.432 107.88 134.64C107.673 134.64 107.465 134.847 107.465 134.847C107.465 135.054 107.258 135.261 107.465 135.261C107.88 135.054 108.087 135.054 108.502 135.261C108.709 135.468 108.916 135.468 109.123 135.675C109.538 136.09 109.745 136.297 110.367 136.297C110.574 136.297 110.781 136.09 110.988 136.09C111.403 135.882 111.817 135.882 112.232 135.882C113.268 135.675 114.304 136.09 115.133 136.711C116.376 137.332 117.412 138.161 118.448 138.782C120.313 139.611 122.178 140.439 124.043 141.268C124.458 141.475 125.08 141.682 125.701 141.475C126.116 141.475 131.089 142.097 132.954 142.718C135.648 143.339 138.549 144.168 141.036 145.204C142.279 145.618 143.73 146.032 144.973 145.618C146.009 145.411 147.046 144.375 147.046 143.132C147.046 141.682 145.595 141.268 144.559 140.854C141.865 139.611 138.964 138.782 135.855 138.575C133.99 138.575 131.918 138.575 130.26 138.161C129.017 137.954 127.774 137.332 126.53 136.918C124.665 136.297 122.593 135.675 120.728 135.054C118.656 134.432 117.205 134.64 115.754 134.225Z" fill="#D6B9A1"/>
				<path d="M121.557 150.382C119.899 150.589 118.448 151.003 116.998 151.003C116.376 151.003 115.755 151.21 115.133 151.003C114.511 151.003 114.097 150.796 113.682 150.589C111.61 149.76 109.331 148.725 107.258 147.896C106.015 147.482 104.979 147.275 103.736 147.068C102.907 146.861 101.042 147.275 101.042 145.825C101.042 145.203 101.663 144.582 101.456 143.961C101.249 143.339 100.627 142.718 100.627 142.096C100.627 141.889 100.834 141.682 100.627 141.475C100.42 141.475 100.213 141.475 100.213 141.682C99.7982 142.096 100.005 142.925 100.213 143.339C100.213 143.546 100.213 143.753 100.213 143.753C99.7982 143.961 98.5549 142.304 98.3476 141.889C98.1404 141.682 97.9332 141.268 97.726 141.061C97.5188 140.646 97.1043 140.439 96.8971 140.025C96.6898 139.818 96.6898 139.818 96.4826 139.818C96.2754 139.818 96.0682 140.025 96.2754 140.232C96.2754 140.439 96.4826 140.646 96.6899 140.646C97.1043 141.061 97.5187 141.475 97.9332 141.889C98.1404 142.096 98.1404 142.304 98.1404 142.304C97.9332 142.925 97.3115 142.096 97.3115 141.889C96.8971 141.475 96.4826 141.061 96.0682 140.646C95.8609 140.439 95.2393 139.818 94.8248 140.025C94.6176 140.232 94.6176 140.439 94.8248 140.439C94.8248 140.646 95.032 140.646 95.2393 140.854C95.8609 141.475 96.4826 142.096 97.1043 142.511C97.3115 142.511 97.3115 142.718 97.3115 142.925C97.3115 143.132 97.3115 143.132 97.3115 143.339C97.1043 143.754 95.861 142.511 95.6537 142.304C95.4465 142.096 94.8248 141.475 94.4104 141.682C94.2031 141.682 94.2031 142.096 94.2031 142.096C94.2031 142.304 94.4104 142.304 94.6176 142.511C95.2393 142.925 96.0682 143.546 96.6899 144.168L96.8971 144.375C96.8971 144.582 96.8971 144.582 96.8971 144.789C96.6898 144.996 95.4465 143.961 95.032 143.961H94.8248C94.8248 143.961 94.8248 144.168 94.8248 144.375C95.2393 144.996 95.8609 145.411 96.4826 145.825C96.6898 146.032 97.1043 146.239 97.3115 146.446C97.726 146.653 98.1404 147.068 98.5549 147.482C98.9693 147.896 99.591 148.103 100.213 148.311C100.42 148.311 100.834 148.311 101.042 148.518C101.249 148.518 101.456 148.725 101.87 148.932C104.15 150.589 106.429 152.039 108.709 153.282C109.745 153.903 110.781 154.525 112.025 154.525C112.439 154.525 113.061 154.318 113.475 154.525C115.34 154.525 117.205 155.768 119.07 155.975C120.106 156.182 120.935 156.389 121.971 156.389C125.494 156.803 129.017 155.975 132.54 155.56C136.684 155.146 137.72 150.796 133.99 149.553C130.053 149.139 125.701 149.761 121.557 150.382Z" fill="#E5C8AC"/>
				<path d="M157.821 150.175C159.686 154.732 161.137 159.703 165.074 162.603C166.525 163.639 173.363 169.025 173.57 171.096C173.778 174.41 169.633 177.103 166.732 176.896C162.587 176.689 159.272 180.831 158.028 179.589C156.371 177.932 157.821 175.653 156.163 173.996C154.713 172.546 153.677 171.096 152.226 169.646C148.703 166.332 144.352 163.432 140.622 160.532C137.513 158.253 134.198 156.803 130.26 156.803C129.639 156.803 129.017 156.804 128.602 156.596C127.566 155.975 127.359 154.525 127.566 153.282C127.566 152.661 127.774 152.246 128.188 151.832C128.81 151.004 129.846 150.589 130.882 150.175C132.954 149.554 135.234 149.139 137.513 148.932C138.964 148.725 141.45 149.139 141.865 147.068C141.865 146.239 141.45 145.411 141.243 144.582C140.829 143.754 140.622 142.925 140.829 142.097C141.036 141.268 142.072 140.44 143.108 140.233C144.144 140.025 144.973 140.025 146.009 140.233C150.983 140.647 155.542 144.997 157.821 150.175Z" fill="#FCC874"/>
				<path d="M135.027 147.896C134.198 148.311 132.54 146.861 131.918 146.446C131.089 145.825 130.468 144.997 130.26 144.168C130.26 143.754 130.26 143.339 130.26 143.132C130.053 142.304 129.224 141.889 128.603 141.268C127.774 140.232 127.566 138.782 127.981 137.54C128.395 136.297 129.224 135.261 130.053 134.225C130.675 133.604 131.297 132.775 132.125 132.568C132.747 132.361 133.576 132.568 134.198 132.775C136.477 133.604 138.135 135.468 139.378 137.54C140 138.575 140.622 139.611 141.243 140.854C141.658 141.889 141.658 143.132 142.694 143.754C143.108 144.168 143.73 144.375 143.937 144.789C144.352 145.204 144.352 146.032 144.145 146.654C143.937 147.275 143.523 147.896 143.108 148.311C142.487 148.932 141.865 149.554 141.036 149.554C140.207 149.554 139.793 148.932 138.964 148.311C138.342 147.896 137.721 147.482 136.892 147.482C136.477 147.482 136.27 147.482 135.855 147.482C135.648 147.482 135.441 147.689 135.027 147.896Z" fill="#E5C8AC"/>
				<path d="M134.612 130.497C135.234 130.704 136.063 130.497 136.892 130.29C137.721 130.29 138.549 130.497 138.757 131.118C138.964 131.532 138.757 131.947 138.757 132.361C138.964 133.19 140 133.604 140.829 133.811C141.658 134.018 142.694 134.639 142.487 135.675C142.487 136.089 142.072 136.504 142.072 136.711C142.072 137.539 143.108 137.954 143.108 138.575C143.108 138.989 142.901 139.197 142.694 139.611C142.28 140.439 142.28 141.268 142.694 142.096C142.28 142.718 141.658 143.546 140.829 143.754C140 143.961 138.964 143.546 138.964 142.718C138.964 142.511 138.964 142.304 138.964 142.096C138.757 141.682 138.135 141.682 137.721 142.096C137.306 142.304 136.892 142.718 136.477 142.718C135.856 142.511 135.856 141.889 136.063 141.268C136.477 139.818 135.441 138.782 133.991 139.818C133.162 140.439 133.369 140.646 133.162 141.475C132.954 141.889 132.54 142.096 132.125 142.096C131.504 142.096 131.297 141.475 131.297 140.854C131.297 140.232 131.089 139.818 130.675 139.404C130.26 138.989 129.432 139.404 129.017 139.197C128.603 138.989 128.395 138.782 127.981 138.575C126.945 137.539 126.116 136.504 125.287 135.468C125.287 135.261 125.08 135.261 125.08 135.054C125.08 134.639 125.494 134.432 125.909 134.432C126.323 134.432 126.53 134.432 126.945 134.432C127.774 134.225 127.774 133.19 127.981 132.568C128.395 131.74 129.224 131.325 130.053 131.325C130.26 131.325 130.468 131.325 130.675 131.325C130.882 131.325 131.089 131.118 131.297 130.911C131.711 130.497 132.333 130.082 132.954 129.875C133.783 129.254 133.783 130.082 134.612 130.497C134.405 130.497 134.612 130.497 134.612 130.497Z" fill="#252F62"/>
			</g>
		</svg>

		<svg viewBox="0 0 574 709" preserveAspectRatio="none"  fill="none" xmlns="http://www.w3.org/2000/svg">
			<g id="grown-vector" class="img">
				<path d="M359 330.5C180.2 498.5 138.167 652.5 139.5 708.5L63 675.5L0 0H573.5C576.5 40.1667 537.8 162.5 359 330.5Z" fill="#249EFA"/>
			</g>
		</svg>


























</svg>